<mxfile host="app.diagrams.net" agent="Mozilla/5.0 (Windows NT 10.0; Win64; x64) AppleWebKit/537.36 (KHTML, like Gecko) Chrome/126.0.0.0 Safari/537.36" version="24.7.4">
  <diagram name="Page-1" id="EEB-hzrGlE0aFGqIlxX1">
    <mxGraphModel dx="1050" dy="522" grid="1" gridSize="10" guides="1" tooltips="1" connect="1" arrows="1" fold="1" page="1" pageScale="1" pageWidth="1100" pageHeight="850" math="0" shadow="0">
      <root>
        <mxCell id="0" />
        <mxCell id="1" parent="0" />
        <mxCell id="7T2twcSj4vieo-e-u2GF-1" value="&lt;div style=&quot;&quot;&gt;&lt;span style=&quot;background-color: initial;&quot;&gt;&lt;font style=&quot;font-size: 14px;&quot;&gt;API GATEWAY&lt;/font&gt;&lt;/span&gt;&lt;/div&gt;" style="rounded=0;whiteSpace=wrap;html=1;rotation=90;align=center;" vertex="1" parent="1">
          <mxGeometry x="300" y="240" width="260" height="70" as="geometry" />
        </mxCell>
        <mxCell id="7T2twcSj4vieo-e-u2GF-4" value="" style="rounded=1;whiteSpace=wrap;html=1;direction=south;" vertex="1" parent="1">
          <mxGeometry x="40" y="247.5" width="30" height="70" as="geometry" />
        </mxCell>
        <mxCell id="7T2twcSj4vieo-e-u2GF-23" value="" style="rounded=1;whiteSpace=wrap;html=1;" vertex="1" parent="1">
          <mxGeometry x="280" y="50" width="690" height="430" as="geometry" />
        </mxCell>
        <mxCell id="7T2twcSj4vieo-e-u2GF-25" value="" style="rounded=1;whiteSpace=wrap;html=1;direction=south;" vertex="1" parent="1">
          <mxGeometry x="310" y="80" width="80" height="380" as="geometry" />
        </mxCell>
        <mxCell id="7T2twcSj4vieo-e-u2GF-32" value="" style="rounded=1;whiteSpace=wrap;html=1;" vertex="1" parent="1">
          <mxGeometry x="140" y="257.5" width="120" height="52.5" as="geometry" />
        </mxCell>
      </root>
    </mxGraphModel>
  </diagram>
</mxfile>
